<svg width="34" height="34" viewBox="0 0 34 34" fill="none" xmlns="http://www.w3.org/2000/svg">
<path d="M24.4562 19.9944C24.0214 19.9944 23.6688 20.3469 23.6688 20.7817C23.6688 21.2166 24.0214 21.5691 24.4562 21.5691C24.891 21.5691 25.2436 21.2166 25.2436 20.7817C25.2436 20.3469 24.891 19.9944 24.4562 19.9944ZM9.43656 19.9944C9.00172 19.9944 8.64919 20.3469 8.64919 20.7817C8.64919 21.2166 9.00172 21.5691 9.43656 21.5691C9.8714 21.5691 10.2239 21.2166 10.2239 20.7817C10.2239 20.3493 9.87498 19.9974 9.44253 19.9944H9.43656ZM27.7429 11.9298C27.2388 11.4622 26.5165 11.3148 25.8699 11.5481C25.3515 11.6876 25.0437 12.2209 25.1833 12.7393C25.1887 12.7601 25.1953 12.7804 25.2018 12.8007C25.2448 13.0071 25.3486 13.1962 25.5001 13.3435L25.339 13.7312L24.9632 13.6895L23.1737 9.34701C22.965 8.91038 22.5242 8.63182 22.0404 8.63123H11.9716C11.4783 8.63302 11.031 8.92231 10.8264 9.37087L9.03691 13.6775L8.61937 13.7193L8.45832 13.3316C8.60982 13.1842 8.71361 12.9952 8.75656 12.7888C8.92954 12.2806 8.65814 11.7282 8.14993 11.5546C8.12965 11.5475 8.10937 11.5415 8.08849 11.5361C7.43951 11.3059 6.71656 11.458 6.21551 11.9298C5.84509 12.3503 5.88625 12.991 6.30618 13.3608C6.31572 13.3692 6.32526 13.3769 6.33481 13.3853C6.62768 13.538 6.95277 13.6197 7.28323 13.6239L7.46814 14.0772C7.39895 14.1333 7.33691 14.1971 7.28323 14.2681L6.75832 14.9481C6.58056 15.1741 6.48393 15.4539 6.48393 15.7414V24.0326C6.48035 24.7341 7.04702 25.3055 7.74849 25.3091C7.75028 25.3091 7.75267 25.3091 7.75446 25.3091H10.1404C10.8395 25.3026 11.4026 24.7317 11.399 24.0326V23.4361C12.4309 23.4898 14.6081 23.5853 17.0538 23.5853C19.4994 23.5853 21.5095 23.4898 22.4997 23.4361V24.0326C22.4932 24.7311 23.0539 25.3026 23.7523 25.3091C23.7541 25.3091 23.7565 25.3091 23.7583 25.3091H26.1443C26.8457 25.3222 27.4255 24.7645 27.4387 24.0624C27.4387 24.0523 27.4387 24.0422 27.4387 24.0326V15.6818C27.4249 15.4008 27.3229 15.1312 27.1464 14.9123L26.6155 14.2621L26.4783 14.1249L26.6751 13.6418C27.0056 13.6376 27.3307 13.5559 27.6236 13.4032C28.0614 13.0536 28.133 12.416 27.784 11.9781C27.7709 11.9614 27.7572 11.9453 27.7429 11.9298ZM24.7246 16.1649C24.8523 16.5574 24.8266 16.9833 24.653 17.3579C24.5618 17.5345 24.4061 17.6693 24.2176 17.7337C23.7225 17.8768 23.126 17.3937 22.9113 16.6719C22.7836 16.2788 22.8117 15.8523 22.9888 15.4789C23.0759 15.2976 23.2334 15.1598 23.4243 15.0972C23.4833 15.0882 23.5442 15.0882 23.6032 15.0972C24.1591 15.1885 24.6029 15.609 24.7246 16.1589V16.1649ZM11.9299 9.85403C11.943 9.83316 11.9651 9.82003 11.9895 9.81824H22.0225H22.0702L23.6211 13.5523C22.2313 13.4449 20.0899 13.3495 16.9881 13.3495C13.8864 13.3495 11.7748 13.4449 10.3671 13.5463L11.9299 9.85403ZM9.16217 16.1589C9.2773 15.5988 9.72526 15.1676 10.2895 15.0733C10.3468 15.0644 10.4053 15.0644 10.4625 15.0733C10.6534 15.136 10.8109 15.2738 10.898 15.4551C11.0775 15.8273 11.1055 16.2556 10.9755 16.6481C10.7369 17.4056 10.1404 17.8947 9.67516 17.7456C9.48488 17.6848 9.3274 17.5494 9.23972 17.3698C9.0566 16.9916 9.02856 16.5574 9.16217 16.1589ZM10.218 24.0326C10.2215 24.0732 10.1929 24.1102 10.1523 24.1161H7.75446C7.71389 24.1102 7.68526 24.0732 7.68884 24.0326V22.9053C8.02288 22.9768 8.42849 23.0544 8.88182 23.12C9.33516 23.1856 9.89586 23.2691 10.2597 23.3109L10.218 24.0326ZM26.2457 24.0326C26.2493 24.0732 26.2206 24.1102 26.1801 24.1161H23.7941C23.7535 24.1102 23.7249 24.0732 23.7285 24.0326V23.3109L25.0527 23.12C25.4762 23.0544 25.8878 22.9768 26.2457 22.9053V24.0326ZM26.2457 21.6824C25.8937 21.76 25.3987 21.8614 24.8857 21.9449C23.973 22.0821 23.0962 22.1835 23.0485 22.1895C22.8695 22.1895 20.3046 22.3744 17.0836 22.3744C13.8625 22.3744 10.9874 22.1954 10.8801 22.1895C10.7727 22.1835 9.90182 22.0702 9.01902 21.9449C8.512 21.8614 8.02288 21.76 7.67691 21.6884V15.7235C7.66916 15.7044 7.66916 15.6829 7.67691 15.6639L8.20182 14.9839C8.21495 14.9785 8.23046 14.9785 8.24358 14.9839L8.84007 14.9063C8.58417 15.1992 8.3933 15.5428 8.27937 15.9144C8.07835 16.5419 8.13203 17.2231 8.42849 17.8112C8.64144 18.1983 8.99993 18.4841 9.42463 18.6046C9.56003 18.6445 9.70081 18.6648 9.84217 18.6642C10.8091 18.5813 11.6132 17.8858 11.8345 16.9403C12.0349 16.3152 11.9818 15.6358 11.6853 15.0495C11.6132 14.9165 11.5225 14.7942 11.4169 14.6856C12.759 14.614 14.5843 14.5544 16.9881 14.5544C19.392 14.5544 21.1636 14.614 22.4759 14.6856C22.3697 14.7954 22.2778 14.9176 22.2015 15.0495C21.911 15.6382 21.8639 16.317 22.0702 16.9403C22.2927 17.8846 23.0962 18.5795 24.0625 18.6642C24.2057 18.6648 24.3482 18.6451 24.486 18.6046C24.9036 18.4769 25.2519 18.187 25.4523 17.7993C25.7488 17.2112 25.8025 16.53 25.6015 15.9025C25.478 15.5255 25.2746 15.1795 25.005 14.8884L25.679 14.9958L26.2457 15.646C26.251 15.6656 26.251 15.6859 26.2457 15.7056V21.6824ZM19.5292 17.1014H14.3874C13.5356 17.0942 12.7167 17.4295 12.1148 18.0319C11.6203 18.5282 11.3507 19.2046 11.3692 19.9049C11.3692 20.4 12.0552 21.4498 12.765 21.4498H21.1516C21.8615 21.4498 22.5295 20.4 22.5474 19.9049C22.5629 19.2052 22.2939 18.5294 21.8018 18.0319C21.2 17.4295 20.381 17.0942 19.5292 17.1014ZM21.0502 20.2807H12.8664C12.7447 20.1686 12.6421 20.0379 12.5622 19.893C12.5538 19.5172 12.7006 19.1551 12.9678 18.8909C13.3406 18.5079 13.853 18.2926 14.3874 18.2944H19.5292C20.0619 18.292 20.573 18.5073 20.9429 18.8909C21.1988 19.139 21.3485 19.4772 21.3604 19.8333C21.2882 20.0021 21.1833 20.1542 21.0502 20.2807Z" fill="#1A420A"/>
</svg>
