<svg width="38" height="38" viewBox="0 0 38 38" fill="none" xmlns="http://www.w3.org/2000/svg">
<path d="M19.6266 23.0133H14.6406C13.79 23.0053 12.972 23.34 12.3713 23.9427C11.8766 24.44 11.6066 25.118 11.624 25.8187C11.64 26.342 12.3173 27.4073 13.0646 27.4073H21.2026C21.95 27.4073 22.6273 26.342 22.6433 25.8187C22.6606 25.1173 22.39 24.4393 21.8953 23.9427C21.2953 23.34 20.4773 23.0053 19.6266 23.0133ZM21.0693 26.0733H13.1986C13.1006 25.9713 13.0193 25.8553 12.9573 25.728C12.9666 25.4047 13.0993 25.0973 13.3293 24.87C13.6786 24.526 14.152 24.3373 14.642 24.346H19.628C20.118 24.3373 20.5913 24.526 20.9406 24.87C21.17 25.0973 21.3033 25.4047 21.3126 25.728C21.2486 25.8553 21.1673 25.9713 21.0693 26.0733ZM9.84396 25.906C9.42263 25.906 9.08063 26.248 9.08063 26.6693C9.08063 27.0907 9.42263 27.4327 9.84396 27.4327C10.2653 27.4327 10.6073 27.0907 10.6073 26.6693C10.6073 26.2473 10.2653 25.906 9.84396 25.906ZM25.1786 26.6693C25.1786 26.248 24.8366 25.906 24.4153 25.906C23.994 25.906 23.652 26.248 23.652 26.6693C23.652 27.0907 23.994 27.4327 24.4153 27.4327C24.8366 27.4327 25.1786 27.0907 25.1786 26.6693ZM28.0813 13.7493L29.6533 8.82267L25.0593 10.7307L22.982 6.62933L20.9126 10.6847L17.032 8.76733L17.0833 13.758L18.4166 13.744L18.388 10.924L21.5026 12.4633L22.978 9.572L24.3893 12.4527L27.5086 11.1573L26.4686 14.4133L29.0046 15.734L27.8326 16.6667L28.6626 17.71L31.4413 15.5L28.0813 13.7493ZM25.7773 17.704C25.2726 17.8427 24.976 18.364 25.114 18.8687C25.1186 18.886 25.124 18.9027 25.1293 18.92C25.164 19.0873 25.242 19.2433 25.3553 19.3713L25.2086 19.7293C25.1346 19.72 25.0526 19.71 24.96 19.7L23.2266 15.5333C23.0086 15.0793 22.5506 14.7907 22.0466 14.7893H12.298C11.784 14.794 11.3186 15.096 11.1046 15.5633L9.38063 19.6933C9.27663 19.7047 9.18129 19.7153 9.09929 19.7253L8.95463 19.3707C9.06796 19.2427 9.14596 19.0867 9.18063 18.9193C9.34729 18.4233 9.08063 17.886 8.58396 17.7187C8.56729 17.7133 8.54996 17.708 8.53263 17.7033C7.90463 17.4767 7.20196 17.6213 6.71463 18.0773C6.35596 18.4867 6.39729 19.1087 6.80663 19.4673C6.81396 19.474 6.82196 19.48 6.82929 19.4867C7.08463 19.6207 7.36596 19.698 7.65329 19.712L7.82796 20.1387C7.77463 20.1853 7.72596 20.2367 7.68063 20.292L7.16863 20.9507C6.98663 21.1867 6.88796 21.476 6.88796 21.7733V29.818C6.88329 30.5453 7.46796 31.1387 8.19463 31.1453H10.534C11.2613 31.1387 11.846 30.5447 11.8406 29.818V29.3167C12.8786 29.3713 14.9373 29.4607 17.236 29.4607C19.5 29.4607 21.438 29.374 22.4326 29.3193V29.818C22.428 30.5453 23.012 31.1387 23.7393 31.1453H26.0793C26.8066 31.1387 27.3906 30.5447 27.386 29.818V21.7467C27.386 21.438 27.28 21.1393 27.0853 20.8993L26.5693 20.266C26.538 20.2313 26.5053 20.1987 26.47 20.1673L26.656 19.712C26.944 19.698 27.2253 19.6207 27.4806 19.4867C27.9006 19.1407 27.96 18.52 27.6146 18.1C27.6086 18.0927 27.602 18.0847 27.5953 18.0773C27.1073 17.622 26.4053 17.4773 25.7773 17.704ZM24.6073 22.2047C24.73 22.5733 24.7053 22.9753 24.5386 23.3267C24.4606 23.4847 24.3233 23.6053 24.1566 23.662C23.714 23.7907 23.1706 23.3407 22.974 22.6767C22.852 22.3073 22.8766 21.9053 23.0433 21.5533C23.1213 21.396 23.2586 21.2753 23.4246 21.2187C23.8693 21.0907 24.41 21.5413 24.6073 22.2047ZM12.298 16.1227L22.01 16.0767L23.462 19.566C22.106 19.47 20.068 19.38 17.166 19.38C14.2873 19.38 12.2446 19.468 10.8753 19.5633L12.298 16.1227ZM9.63596 22.2047C9.81063 21.618 10.2546 21.1967 10.6613 21.1967C10.7146 21.1967 10.768 21.204 10.8186 21.2187C10.9853 21.2753 11.1226 21.3953 11.2006 21.5533C11.3673 21.9047 11.392 22.3073 11.27 22.6767C11.072 23.34 10.5286 23.79 10.0873 23.662C9.92063 23.6053 9.78329 23.4853 9.70529 23.3273C9.53796 22.9753 9.51329 22.5733 9.63596 22.2047ZM8.22196 29.8193V28.8387C8.52329 28.9013 8.87863 28.9687 9.24596 29.0253C9.71529 29.0973 10.18 29.16 10.5266 29.2047L10.5353 29.814L8.22196 29.8193ZM23.0346 27.9487C22.8473 27.9613 20.3646 28.1287 17.2373 28.1287C14.0573 28.1287 11.3533 27.956 11.23 27.948C11.1213 27.9353 10.2973 27.838 9.44863 27.708C8.99263 27.638 8.54796 27.5473 8.22196 27.4753L8.22263 21.77L8.72663 21.12L8.82196 21.11C8.82663 21.1093 8.91929 21.094 9.10529 21.07C8.91396 21.3253 8.76863 21.6133 8.67729 21.9193C8.47663 22.5433 8.53063 23.2207 8.82663 23.8053C9.03063 24.1973 9.38396 24.4913 9.80663 24.6213C9.94529 24.662 10.0893 24.6827 10.234 24.6827C11.2006 24.6 12.0046 23.906 12.228 22.962C12.4286 22.338 12.3753 21.6607 12.0786 21.076C12.032 20.9927 11.9786 20.9127 11.9193 20.838C13.2066 20.7693 14.932 20.7147 17.166 20.7147C19.3626 20.7147 21.0566 20.768 22.3266 20.8347C22.2666 20.9107 22.2126 20.9913 22.1653 21.076C21.8686 21.6607 21.8146 22.3387 22.0153 22.9627C22.238 23.9067 23.042 24.6013 24.0086 24.6833C24.1533 24.6833 24.2973 24.6627 24.4366 24.622C24.86 24.492 25.2126 24.198 25.4173 23.8053C25.7133 23.2207 25.7666 22.5433 25.566 21.92C25.474 21.6113 25.3273 21.322 25.1326 21.0653C25.338 21.092 25.4426 21.1093 25.4473 21.11H25.538L26.054 21.7473L26.0726 27.4693C25.74 27.542 25.2806 27.6353 24.812 27.7073C23.936 27.842 23.0973 27.9407 23.0346 27.9487ZM23.7666 29.8193V29.2007C24.1066 29.1567 24.556 29.0953 25.0146 29.0247C25.396 28.966 25.7653 28.8953 26.0766 28.8313L26.08 29.8133L23.7666 29.8193Z" fill="#BC0909"/>
</svg>
